<svg xmlns="http://www.w3.org/2000/svg" viewBox="0 0 160.84 160.32"><title>tft-logomark</title><g id="Layer_2" data-name="Layer 2"><g id="Layer_1-2" data-name="Layer 1"><path id="Fill-10" d="M98.1,42.17C85.1,24.63,60.81,28,43.3,35.93c-20.66,9.41-38,31.74-36.54,55.14,1.1,17.17,14.94,29.9,29.79,36.5,22.47,10,48.29,7.62,69.76-3.73,15.26-8.06,30.93-20.58,38.94-36.2,11.69-22.78-.67-46.36-20.69-59.26a66.86,66.86,0,0,0-13.8-6.82c-6.75-2.4-22.67-5-2.21-2.9a57,57,0,0,1,6.58,1.27,61.83,61.83,0,0,1,14.41,5.46c20.38,10.36,34.38,32.23,29.74,55.41C155.73,98.56,143,113,128.89,123.53c-18.94,14.2-42.62,21.75-66.31,19.75C40.92,141.46,17.3,131.35,6,111.87-2.33,97.61-1.59,80,5.82,65.52,15.2,47.15,32.56,34,52.35,28.76c9.9-2.6,20.68-3.29,30.46.14a32.15,32.15,0,0,1,11.84,7.27,27.63,27.63,0,0,1,3.69,4.32c.39.56.73,2.93-.24,1.68" fill="#e3a663"/><path id="Fill-10-2" data-name="Fill-10" d="M66.47,40.61C44.87,37.4,30.05,56.92,23.31,75c-8,21.26-4.47,49.34,13.14,64.82,12.93,11.36,31.71,10.59,46.88,4.76,23-8.83,39.54-28.77,46.69-52,5.1-16.49,7.32-36.43,1.94-53.14C124.12,15.05,98.7,7.12,75.42,12.15a67,67,0,0,0-14.58,4.94c-6.46,3.07-19.54,12.5-3.61-.49a57,57,0,0,1,5.56-3.76A62.08,62.08,0,0,1,76.84,6.52C98.57-.57,123.93,5,137.05,24.67c10,15.07,11.23,34.22,8.73,51.7-3.36,23.43-14.77,45.52-32.93,60.86-16.61,14-40.46,23.58-62.25,17.81-16-4.21-27.85-17.17-32.87-32.67-6.36-19.62-3.41-41.21,6.91-58.89C29.8,54.64,36.93,46.54,46.27,42a32.17,32.17,0,0,1,13.51-3.23,28.35,28.35,0,0,1,5.67.44c.68.13,2.59,1.56,1,1.36" fill="#dae7a2"/><path id="Fill-10-3" data-name="Fill-10" d="M42.49,62.22C25,75.22,28.27,99.51,36.25,117c9.42,20.66,31.74,38.05,55.14,36.54,17.17-1.1,29.91-14.94,36.5-29.79,10-22.46,7.62-48.29-3.72-69.76C116.11,38.75,103.58,23.08,88,15.07,65.19,3.38,41.6,15.74,28.7,35.76a67.37,67.37,0,0,0-6.82,13.8c-2.39,6.75-5,22.67-2.9,2.21a59.2,59.2,0,0,1,1.27-6.58,62.31,62.31,0,0,1,5.47-14.41C36.07,10.4,57.94-3.6,81.13,1c17.75,3.55,32.14,16.25,42.73,30.39,14.19,18.94,21.74,42.62,19.75,66.31-1.83,21.66-11.94,45.28-31.42,56.62-14.26,8.29-31.84,7.55-46.35.14C47.48,145.12,34.29,127.76,29.09,108c-2.61-9.9-3.29-20.67.13-30.46a32,32,0,0,1,7.27-11.83A27.17,27.17,0,0,1,40.81,62c.57-.39,2.94-.73,1.68.24" fill="#3fe0c5"/><path id="Fill-10-4" data-name="Fill-10" d="M118.63,98.1c17.55-13,14.23-37.29,6.24-54.8-9.41-20.66-31.73-38-55.13-36.54C52.57,7.86,39.83,21.7,33.23,36.55,23.25,59,25.62,84.84,37,106.31c8.06,15.26,20.59,30.93,36.21,38.94,22.77,11.69,46.36-.67,59.26-20.69a67.37,67.37,0,0,0,6.82-13.8c2.39-6.75,5-22.67,2.9-2.21a57,57,0,0,1-1.28,6.58,61.83,61.83,0,0,1-5.46,14.41c-10.36,20.38-32.22,34.38-55.41,29.74C62.24,155.73,47.86,143,37.27,128.89,23.08,110,15.52,86.27,17.52,62.58,19.35,40.92,29.45,17.3,48.94,6,63.2-2.33,80.78-1.59,95.29,5.82,113.65,15.2,126.83,32.56,132,52.35c2.61,9.9,3.29,20.68-.14,30.46a31.88,31.88,0,0,1-7.27,11.84,27.11,27.11,0,0,1-4.31,3.69c-.57.39-2.94.73-1.69-.24" fill="#dae7a2"/><path id="Fill-10-5" data-name="Fill-10" d="M94.33,119.71c21.6,3.21,36.43-16.31,43.17-34.34C145.45,64.11,142,36,124.35,20.55,111.43,9.19,92.64,10,77.48,15.8c-23,8.82-39.54,28.76-46.7,52-5.09,16.49-7.31,36.43-1.93,53.14,7.83,24.37,33.25,32.3,56.53,27.27A66.31,66.31,0,0,0,100,143.23c6.47-3.07,19.55-12.5,3.62.49A58.26,58.26,0,0,1,98,147.48a62.47,62.47,0,0,1-14,6.32c-21.74,7.09-47.1,1.53-60.21-18.15C13.71,120.58,12.52,101.43,15,84,18.39,60.52,29.79,38.43,48,23.09,64.56,9.07,88.41-.49,110.2,5.28c16,4.21,27.86,17.17,32.88,32.67,6.35,19.62,3.4,41.21-6.91,58.89-5.16,8.84-12.3,16.94-21.64,21.44A32.1,32.1,0,0,1,101,121.51a28.35,28.35,0,0,1-5.67-.44c-.67-.13-2.59-1.56-1-1.36" fill="#e3a663"/><path id="Fill-10-6" data-name="Fill-10" d="M62.73,118.15c13,17.54,37.29,14.22,54.8,6.24,20.67-9.41,38.05-31.73,36.55-55.14-1.11-17.17-14.94-29.9-29.79-36.5-22.47-10-48.3-7.62-69.76,3.73C39.26,44.54,23.6,57.06,15.58,72.68,3.89,95.46,16.26,119,36.28,132a67.08,67.08,0,0,0,13.8,6.81c6.75,2.4,22.66,5,2.21,2.9a55.11,55.11,0,0,1-6.59-1.27,62.17,62.17,0,0,1-14.41-5.46C10.91,124.57-3.08,102.71,1.56,79.52,5.11,61.76,17.81,47.37,31.94,36.79,50.88,22.59,74.57,15,98.26,17c21.66,1.82,45.28,11.93,56.61,31.41,8.3,14.26,7.56,31.84.14,46.35-9.38,18.37-26.73,31.55-46.53,36.76-9.9,2.6-20.67,3.29-30.46-.14a32.06,32.06,0,0,1-11.83-7.27,28.24,28.24,0,0,1-3.7-4.32c-.39-.56-.73-2.93.24-1.68" fill="#e86591"/><path id="Fill-10-7" data-name="Fill-10" d="M40.64,94.33C37.43,115.93,57,130.76,75,137.5c21.26,7.95,49.34,4.46,64.82-13.15,11.36-12.92,10.59-31.71,4.76-46.87-8.83-23-28.77-39.54-52-46.7-16.49-5.09-36.43-7.31-53.14-1.93C15.08,36.68,7.15,62.1,12.18,85.38A67.37,67.37,0,0,0,17.12,100c3.07,6.47,12.5,19.55-.49,3.62A58.26,58.26,0,0,1,12.87,98,62.47,62.47,0,0,1,6.55,84C-.54,62.23,5,36.87,24.7,23.76c15.07-10,34.22-11.24,51.7-8.73C99.83,18.39,121.92,29.79,137.26,48c14,16.6,23.58,40.45,17.81,62.24-4.21,16-17.17,27.86-32.67,32.88-19.62,6.35-41.21,3.4-58.89-6.91-8.84-5.16-16.94-12.3-21.44-21.64A32.1,32.1,0,0,1,38.84,101a28.35,28.35,0,0,1,.44-5.67c.13-.67,1.56-2.59,1.36-1" fill="#e13dc2"/><path id="Fill-10-8" data-name="Fill-10" d="M120,66c3.21-21.6-16.31-36.43-34.33-43.17-21.27-8-49.35-4.46-64.83,13.15C9.51,48.89,10.28,67.68,16.12,82.85c8.83,22.94,28.76,39.53,52,46.69,16.49,5.09,36.42,7.31,53.14,1.93,24.36-7.83,32.3-33.25,27.26-56.53a66.8,66.8,0,0,0-4.93-14.58c-3.08-6.47-12.51-19.55.49-3.61a58,58,0,0,1,3.75,5.55,62.07,62.07,0,0,1,6.33,14c7.08,21.74,1.52,47.1-18.15,60.21-15.07,10.05-34.23,11.24-51.71,8.73-23.42-3.36-45.51-14.76-60.85-32.93C9.39,95.76-.16,71.91,5.6,50.12c4.21-16,17.17-27.86,32.67-32.88,19.62-6.35,41.21-3.4,58.89,6.91,8.85,5.16,17,12.3,21.44,21.64a31.84,31.84,0,0,1,3.23,13.51,27.64,27.64,0,0,1-.44,5.67c-.12.67-1.56,2.59-1.36,1" fill="#3fe0c5"/></g></g></svg>